<?xml version="1.0" encoding="UTF-8"?>

<svg xmlns="http://www.w3.org/2000/svg" viewBox="0 0 400 96" width="400" height="96" role="img" aria-label="SilentLeak">
  <title>SilentLeak</title>
  <style>
    .sl-word { font: 600 42px Inter, ui-sans-serif, system-ui, -apple-system, BlinkMacSystemFont, "Segoe UI", sans-serif; letter-spacing: -0.02em; }
    .sl-silent { fill: #F5F2EA; }
    .sl-leak { fill: #8B949E; }
  </style>

  
  <g transform="translate(0, 8)">
    <svg x="0" y="0" width="80" height="80" viewBox="0 0 240 240">
      <path d="M 68 68 L 132 68 L 132 88 L 98 88 C 82 88 74 96 74 108 C 74 120 82 128 98 128 L 142 128 C 162 128 174 140 174 160 C 174 180 162 192 142 192 L 58 192 L 58 172 L 138 172 C 150 172 156 168 156 160 C 156 152 150 148 138 148 L 96 148 C 72 148 56 132 56 108 C 56 84 72 68 96 68 Z" fill="#D99235"></path>
      <path d="M 148 44 L 176 44 L 176 64 L 148 64 Z" fill="#F2B45A"></path>
    </svg>
  </g>

  
  <text x="96" y="66" class="sl-word">
    <tspan class="sl-silent">Silent</tspan><tspan class="sl-leak">Leak</tspan>
  </text>
</svg>
